ISO-10303-21;
HEADER;
FILE_DESCRIPTION(('ViewDefinition[DesignTransferView]'),'2;1');
FILE_NAME('/dev/null','2026-08-17T21:33:36+00:00',(''),(''),'IfcOpenShell 0.8.5','IfcOpenShell 0.8.5','Nobody');
FILE_SCHEMA(('IFC4'));
ENDSEC;
DATA;
#1=IFCPROJECT('3b3FhlPBLMFRsXs1nTEOUG',$,'DeltaSeek Demo',$,$,$,$,(#10),#5);
#2=IFCSIUNIT(*,.LENGTHUNIT.,.MILLI.,.METRE.);
#3=IFCSIUNIT(*,.AREAUNIT.,$,.SQUARE_METRE.);
#4=IFCSIUNIT(*,.VOLUMEUNIT.,$,.CUBIC_METRE.);
#5=IFCUNITASSIGNMENT((#2,#3,#4));
#6=IFCCARTESIANPOINT((0.,0.,0.));
#7=IFCDIRECTION((0.,0.,1.));
#8=IFCDIRECTION((1.,0.,0.));
#9=IFCAXIS2PLACEMENT3D(#6,#7,#8);
#10=IFCGEOMETRICREPRESENTATIONCONTEXT($,'Model',3,1.0000000000000001E-05,#9,$);
#11=IFCGEOMETRICREPRESENTATIONSUBCONTEXT('Body','Model',*,*,*,*,#10,$,.MODEL_VIEW.,$);
#12=IFCSITE('1z$eMSCsLGIuhoCX8QTRUT',$,'Demo Site',$,$,$,$,$,$,$,$,$,$,$);
#13=IFCBUILDING('0k9MzLPd1NVPGSUuPfxZdA',$,'Demo Building',$,$,$,$,$,$,$,$,$);
#14=IFCBUILDINGSTOREY('1ryfhtpkHRnvdecF4CmdGQ',$,'Ground Floor',$,$,$,$,$,$,$);
#15=IFCRELAGGREGATES('2dA4T6BYPB4va5pTSjCLkL',$,$,$,#1,(#12));
#16=IFCRELAGGREGATES('0NR$PpxTj3sPsGhIURXUTW',$,$,$,#12,(#13));
#17=IFCRELAGGREGATES('1Ua$osFSD9LxWglQQmxoli',$,$,$,#13,(#14));
#18=IFCSLAB('28tbQOrQDP4flHeG2NHcXl',$,'Ground slab',$,$,#39,#28,$,$);
#19=IFCCARTESIANPOINTLIST3D(((-9000.,-6000.,-200.),(9000.,-6000.,-200.),(9000.,6000.,-200.),(-9000.,6000.,-200.),(-9000.,-6000.,0.),(9000.,-6000.,0.),(9000.,6000.,0.),(-9000.,6000.,0.)));
#20=IFCINDEXEDPOLYGONALFACE((1,4,3,2));
#21=IFCINDEXEDPOLYGONALFACE((5,6,7,8));
#22=IFCINDEXEDPOLYGONALFACE((1,2,6,5));
#23=IFCINDEXEDPOLYGONALFACE((2,3,7,6));
#24=IFCINDEXEDPOLYGONALFACE((3,4,8,7));
#25=IFCINDEXEDPOLYGONALFACE((4,1,5,8));
#26=IFCPOLYGONALFACESET(#19,$,(#20,#21,#22,#23,#24,#25),$);
#27=IFCSHAPEREPRESENTATION(#11,'Body','Tessellation',(#26));
#28=IFCPRODUCTDEFINITIONSHAPE($,$,(#27));
#34=IFCRELCONTAINEDINSPATIALSTRUCTURE('1l$ZDhzW95nh8NY7Aszlll',$,$,$,(#40,#145,#124,#103,#82,#61,#18),#14);
#35=IFCCARTESIANPOINT((0.,0.,0.));
#36=IFCDIRECTION((0.,0.,1.));
#37=IFCDIRECTION((1.,0.,0.));
#38=IFCAXIS2PLACEMENT3D(#35,#36,#37);
#39=IFCLOCALPLACEMENT($,#38);
#40=IFCWALL('0tcngImXHTB9LROQcp5wi9',$,'North wall',$,$,#60,#50,$,$);
#41=IFCCARTESIANPOINTLIST3D(((-9000.,5400.,0.),(9000.,5400.,0.),(9000.,5600.,0.),(-9000.,5600.,0.),(-9000.,5400.,3000.),(9000.,5400.,3000.),(9000.,5600.,3000.),(-9000.,5600.,3000.)));
#42=IFCINDEXEDPOLYGONALFACE((1,4,3,2));
#43=IFCINDEXEDPOLYGONALFACE((5,6,7,8));
#44=IFCINDEXEDPOLYGONALFACE((1,2,6,5));
#45=IFCINDEXEDPOLYGONALFACE((2,3,7,6));
#46=IFCINDEXEDPOLYGONALFACE((3,4,8,7));
#47=IFCINDEXEDPOLYGONALFACE((4,1,5,8));
#48=IFCPOLYGONALFACESET(#41,$,(#42,#43,#44,#45,#46,#47),$);
#49=IFCSHAPEREPRESENTATION(#11,'Body','Tessellation',(#48));
#50=IFCPRODUCTDEFINITIONSHAPE($,$,(#49));
#56=IFCCARTESIANPOINT((0.,0.,0.));
#57=IFCDIRECTION((0.,0.,1.));
#58=IFCDIRECTION((1.,0.,0.));
#59=IFCAXIS2PLACEMENT3D(#56,#57,#58);
#60=IFCLOCALPLACEMENT($,#59);
#61=IFCCOLUMN('1HpDGQbvzKeRG_mP1$QqzX',$,'Column A',$,$,#81,#71,$,$);
#62=IFCCARTESIANPOINTLIST3D(((-3225.,-2225.,0.),(-2775.,-2225.,0.),(-2775.,-1775.,0.),(-3225.,-1775.,0.),(-3225.,-2225.,3000.),(-2775.,-2225.,3000.),(-2775.,-1775.,3000.),(-3225.,-1775.,3000.)));
#63=IFCINDEXEDPOLYGONALFACE((1,4,3,2));
#64=IFCINDEXEDPOLYGONALFACE((5,6,7,8));
#65=IFCINDEXEDPOLYGONALFACE((1,2,6,5));
#66=IFCINDEXEDPOLYGONALFACE((2,3,7,6));
#67=IFCINDEXEDPOLYGONALFACE((3,4,8,7));
#68=IFCINDEXEDPOLYGONALFACE((4,1,5,8));
#69=IFCPOLYGONALFACESET(#62,$,(#63,#64,#65,#66,#67,#68),$);
#70=IFCSHAPEREPRESENTATION(#11,'Body','Tessellation',(#69));
#71=IFCPRODUCTDEFINITIONSHAPE($,$,(#70));
#77=IFCCARTESIANPOINT((0.,0.,0.));
#78=IFCDIRECTION((0.,0.,1.));
#79=IFCDIRECTION((1.,0.,0.));
#80=IFCAXIS2PLACEMENT3D(#77,#78,#79);
#81=IFCLOCALPLACEMENT($,#80);
#82=IFCCOLUMN('1rU08iNtHNGgti2n2Tf0b6',$,'Column B',$,$,#102,#92,$,$);
#83=IFCCARTESIANPOINTLIST3D(((-3225.,2275.,0.),(-2775.,2275.,0.),(-2775.,2725.,0.),(-3225.,2725.,0.),(-3225.,2275.,3000.),(-2775.,2275.,3000.),(-2775.,2725.,3000.),(-3225.,2725.,3000.)));
#84=IFCINDEXEDPOLYGONALFACE((1,4,3,2));
#85=IFCINDEXEDPOLYGONALFACE((5,6,7,8));
#86=IFCINDEXEDPOLYGONALFACE((1,2,6,5));
#87=IFCINDEXEDPOLYGONALFACE((2,3,7,6));
#88=IFCINDEXEDPOLYGONALFACE((3,4,8,7));
#89=IFCINDEXEDPOLYGONALFACE((4,1,5,8));
#90=IFCPOLYGONALFACESET(#83,$,(#84,#85,#86,#87,#88,#89),$);
#91=IFCSHAPEREPRESENTATION(#11,'Body','Tessellation',(#90));
#92=IFCPRODUCTDEFINITIONSHAPE($,$,(#91));
#98=IFCCARTESIANPOINT((0.,0.,0.));
#99=IFCDIRECTION((0.,0.,1.));
#100=IFCDIRECTION((1.,0.,0.));
#101=IFCAXIS2PLACEMENT3D(#98,#99,#100);
#102=IFCLOCALPLACEMENT($,#101);
#103=IFCFLOWSEGMENT('3pEp8vIzrQ48x8Cb1N6zbE',$,'Suspended pipe',$,$,#123,#113,$);
#104=IFCCARTESIANPOINTLIST3D(((1880.,-2500.,2080.),(2120.,-2500.,2080.),(2120.,2500.,2080.),(1880.,2500.,2080.),(1880.,-2500.,2320.0000000000005),(2120.,-2500.,2320.0000000000005),(2120.,2500.,2320.0000000000005),(1880.,2500.,2320.0000000000005)));
#105=IFCINDEXEDPOLYGONALFACE((1,4,3,2));
#106=IFCINDEXEDPOLYGONALFACE((5,6,7,8));
#107=IFCINDEXEDPOLYGONALFACE((1,2,6,5));
#108=IFCINDEXEDPOLYGONALFACE((2,3,7,6));
#109=IFCINDEXEDPOLYGONALFACE((3,4,8,7));
#110=IFCINDEXEDPOLYGONALFACE((4,1,5,8));
#111=IFCPOLYGONALFACESET(#104,$,(#105,#106,#107,#108,#109,#110),$);
#112=IFCSHAPEREPRESENTATION(#11,'Body','Tessellation',(#111));
#113=IFCPRODUCTDEFINITIONSHAPE($,$,(#112));
#119=IFCCARTESIANPOINT((0.,0.,0.));
#120=IFCDIRECTION((0.,0.,1.));
#121=IFCDIRECTION((1.,0.,0.));
#122=IFCAXIS2PLACEMENT3D(#119,#120,#121);
#123=IFCLOCALPLACEMENT($,#122);
#124=IFCBEAM('1oTetZHTbSC89CoF_sOIS7',$,'Cross beam',$,$,#144,#134,$,$);
#125=IFCCARTESIANPOINTLIST3D(((-3000.,1390.,2500.),(0.,1390.,2500.),(0.,1610.,2500.),(-3000.,1610.,2500.),(-3000.,1390.,2800.),(0.,1390.,2800.),(0.,1610.,2800.),(-3000.,1610.,2800.)));
#126=IFCINDEXEDPOLYGONALFACE((1,4,3,2));
#127=IFCINDEXEDPOLYGONALFACE((5,6,7,8));
#128=IFCINDEXEDPOLYGONALFACE((1,2,6,5));
#129=IFCINDEXEDPOLYGONALFACE((2,3,7,6));
#130=IFCINDEXEDPOLYGONALFACE((3,4,8,7));
#131=IFCINDEXEDPOLYGONALFACE((4,1,5,8));
#132=IFCPOLYGONALFACESET(#125,$,(#126,#127,#128,#129,#130,#131),$);
#133=IFCSHAPEREPRESENTATION(#11,'Body','Tessellation',(#132));
#134=IFCPRODUCTDEFINITIONSHAPE($,$,(#133));
#140=IFCCARTESIANPOINT((0.,0.,0.));
#141=IFCDIRECTION((0.,0.,1.));
#142=IFCDIRECTION((1.,0.,0.));
#143=IFCAXIS2PLACEMENT3D(#140,#141,#142);
#144=IFCLOCALPLACEMENT($,#143);
#145=IFCFLOWSEGMENT('0fZ$MiOnzIshQgTqMC2x8T',$,'Rectangular duct',$,$,#165,#155,$);
#146=IFCCARTESIANPOINTLIST3D(((1900.,1750.,2150.),(5100.,1750.,2150.),(5100.,2250.,2150.),(1900.,2250.,2150.),(1900.,1750.,2550.0000000000005),(5100.,1750.,2550.0000000000005),(5100.,2250.,2550.0000000000005),(1900.,2250.,2550.0000000000005)));
#147=IFCINDEXEDPOLYGONALFACE((1,4,3,2));
#148=IFCINDEXEDPOLYGONALFACE((5,6,7,8));
#149=IFCINDEXEDPOLYGONALFACE((1,2,6,5));
#150=IFCINDEXEDPOLYGONALFACE((2,3,7,6));
#151=IFCINDEXEDPOLYGONALFACE((3,4,8,7));
#152=IFCINDEXEDPOLYGONALFACE((4,1,5,8));
#153=IFCPOLYGONALFACESET(#146,$,(#147,#148,#149,#150,#151,#152),$);
#154=IFCSHAPEREPRESENTATION(#11,'Body','Tessellation',(#153));
#155=IFCPRODUCTDEFINITIONSHAPE($,$,(#154));
#161=IFCCARTESIANPOINT((0.,0.,0.));
#162=IFCDIRECTION((0.,0.,1.));
#163=IFCDIRECTION((1.,0.,0.));
#164=IFCAXIS2PLACEMENT3D(#161,#162,#163);
#165=IFCLOCALPLACEMENT($,#164);
ENDSEC;
END-ISO-10303-21;
